<?xml version="1.0" encoding="UTF-8"?>
<svg width="100px" height="104px" viewBox="0 0 100 104" version="1.1" xmlns="http://www.w3.org/2000/svg" xmlns:xlink="http://www.w3.org/1999/xlink">
    <title>pool-WBTC</title>
    <defs>
        <filter id="filter-1">
            <feColorMatrix in="SourceGraphic" type="matrix" values="0 0 0 0 0.968726 0 0 0 0 0.574456 0 0 0 0 0.104411 0 0 0 1.000000 0"></feColorMatrix>
        </filter>
        <polygon id="path-2" points="0 0.68115942 99.8701029 0.68115942 99.8701029 101.253427 0 101.253427"></polygon>
    </defs>
    <g id="页面-1" stroke="none" stroke-width="1" fill="none" fill-rule="evenodd">
        <g id="WEV-101" transform="translate(-1000.000000, -1183.000000)">
            <g id="编组-4" transform="translate(1000.000000, 1183.000000)">
                <circle id="椭圆形" fill="#FFFFFF" cx="50" cy="52" r="50"></circle>
                <g filter="url(#filter-1)" id="logo-WBTC-2">
                    <g id="Group-21" transform="translate(0.000000, 0.122824)">
                        <path d="M81.0162803,22.7668791 L78.2608696,25.4932727 C91.8882124,40.2394266 91.8882124,62.8394114 78.2608696,77.5855652 L81.0162803,80.3119589 C96.182979,64.041751 96.182979,38.9743799 81.0162803,22.7032633 L81.0162803,22.7668791 Z" id="Fill-6" fill="#D4D3D7" fill-rule="nonzero"></path>
                        <path d="M23.4421834,22.7032633 C38.1883372,9.07500209 60.788322,9.07500209 75.534476,22.7032633 L78.2608696,19.9478526 C61.9897529,4.78115378 36.9232906,4.78115378 20.6521739,19.9478526 L23.4421834,22.7032633 Z" id="Fill-8" fill="#D4D3D7" fill-rule="nonzero"></path>
                        <path d="M21.7391304,77.4946856 C8.12832019,62.7521669 8.12832019,40.1721756 21.7391304,25.4296568 L18.9837197,22.7032633 C3.81702096,38.9743801 3.81702096,64.0408423 18.9837197,80.3119589 L21.7391304,77.4946856 Z" id="Fill-10" fill="#D4D3D7" fill-rule="nonzero"></path>
                        <path d="M75.4708601,80.3119589 C60.7247063,93.94022 38.1247213,93.94022 23.3785675,80.3119589 L20.6521739,83.0673696 C36.9232906,98.2340684 61.9897529,98.2340684 78.2608696,83.0673696 L75.4708601,80.3119589 Z" id="Fill-12" fill="#D4D3D7" fill-rule="nonzero"></path>
                        <path d="M58.7483077,45.2618792 C58.7483077,50.7251161 50.1391238,50.0604223 47.4040099,50.0604223 L47.4040099,40.4360198 C50.1391238,40.4360198 58.7483077,39.5801127 58.7483077,45.2618792 M60.9969753,60.2038324 C60.9969753,66.1769714 50.6806395,65.4940668 47.3948315,65.4940668 L47.3948315,54.895387 C50.6806395,54.9044924 60.9969753,53.9666368 60.9969753,60.2038324 M67.7888688,43.1039006 C67.2381747,37.4039233 62.281928,35.4917904 56.0131939,34.9090453 L56.0131939,27.0510894 L51.167086,27.0510894 L51.167086,34.7542535 C49.8913114,34.7542535 48.588002,34.7542535 47.293871,34.7997805 L47.293871,27.0510894 L42.4752978,27.0510894 L42.4752978,34.9545722 L39.3914111,34.9545722 L32.6545869,34.9545722 L32.6545869,40.0991202 C32.6545869,40.0991202 36.2340983,40.0353825 36.1790289,40.0991202 C37.5208869,39.9525234 38.7379208,40.8867369 38.9324993,42.2115719 L38.9324993,63.8550956 C38.8737586,64.7938618 38.0596493,65.5068144 37.1133732,65.4494503 C37.1078664,65.4494503 37.1023594,65.4494503 37.0968524,65.4485398 C37.1611001,65.5031721 33.5724103,65.4485398 33.5724103,65.4485398 L32.6086957,71.194044 L38.9233212,71.194044 L42.3926937,71.194044 L42.3926937,79.2250024 L47.2388016,79.2250024 L47.2388016,71.3124142 L51.1120166,71.3124142 L51.1120166,79.1885807 L55.9673027,79.1885807 L55.9673027,71.2486763 C64.1542879,70.756985 69.8631497,68.7537981 70.5790522,61.1507933 C71.1572809,55.031968 68.2569587,52.3003495 63.6219503,51.1985967 C66.4396682,49.7781551 68.2110675,47.2741715 67.7888688,43.1039006" id="Fill-14" fill="#FFFFFF" fill-rule="nonzero"></path>
                        <g id="Fill-16-Clipped" transform="translate(0.000000, 0.964133)">
                            <mask id="mask-3" fill="white">
                                <use xlink:href="#path-2"></use>
                            </mask>
                            <g id="path-1"></g>
                            <path d="M49.9258651,4.60242851 C24.5131693,4.61807677 3.92396812,25.3759498 3.93949835,50.9672933 C3.95504617,76.5586368 24.5680129,97.2925773 49.9807088,97.2769379 C75.3760375,97.2622014 95.957012,76.5310223 95.9670668,50.9580885 C95.9369027,25.370427 75.3349047,4.64016842 49.9258651,4.63004309 L49.9258651,4.60242851 Z M49.9258651,101.253427 C22.3477612,101.248825 -0.00557576593,78.7309831 -9.24149679e-05,50.9580885 C0.00539295393,23.1851938 22.3660424,0.675636506 49.9441463,0.681158404 C77.5158519,0.686682334 99.8655325,23.1925578 99.8701029,50.9580885 C99.839939,78.7226987 77.4966566,101.223051 49.9258651,101.253427 Z" id="Fill-16" fill="#FFFFFF" fill-rule="nonzero" mask="url(#mask-3)"></path>
                        </g>
                    </g>
                </g>
            </g>
        </g>
    </g>
</svg>