<?xml version="1.0" encoding="UTF-8"?>
<svg width="100px" height="100px" viewBox="0 0 100 100" version="1.1" xmlns="http://www.w3.org/2000/svg" xmlns:xlink="http://www.w3.org/1999/xlink">
    <title>pool-UNI</title>
    <defs>
        <circle id="path-1" cx="50" cy="50" r="50"></circle>
    </defs>
    <g id="页面-1" stroke="none" stroke-width="1" fill="none" fill-rule="evenodd">
        <g id="画板" transform="translate(-262.000000, 0.000000)">
            <g id="编组-3备份" transform="translate(262.000000, 0.000000)">
                <mask id="mask-2" fill="white">
                    <use xlink:href="#path-1"></use>
                </mask>
                <use id="椭圆形" fill="#FF82BD" xlink:href="#path-1"></use>
                <g id="Tabloid---59" mask="url(#mask-2)" fill="#FFFFFF">
                    <g transform="translate(17.000000, 11.000000)">
                        <path d="M23.6536244,15.2158928 C22.8951734,15.1009288 22.8631734,15.0875191 23.2201999,15.0338801 C23.9042633,14.9311811 25.5195109,15.0711657 26.6324752,15.3295486 C29.2310116,15.9324965 31.595663,17.4769064 34.1196443,20.2200167 L34.790137,20.9487218 L35.7493002,20.7981074 C39.7905185,20.1642518 43.9016008,20.6680983 47.3400122,22.2185591 C48.2859398,22.6450543 49.7775432,23.49412 49.9638471,23.7122737 C50.023156,23.7819389 50.1322242,24.22953 50.2059415,24.7072112 C50.4614391,26.3597168 50.3336066,27.6262835 49.8157422,28.5724881 C49.5339409,29.0872914 49.5181922,29.2503342 49.7076793,29.6910569 C49.8589674,30.0426538 50.2804966,30.3028356 50.6980048,30.3021814 C51.5524558,30.3012002 52.4722472,28.9528669 52.8984675,27.076811 L53.0676823,26.3315891 L53.4030962,26.7023194 C55.242344,28.7365121 56.6870364,31.5105302 56.9353298,33.4851967 L57,34 L56.6907222,33.5319672 C56.158617,32.726565 55.6239988,32.1784008 54.9394327,31.7362063 C53.7053373,30.9391443 52.4003728,30.6678423 48.9445372,30.4900814 C45.8234454,30.3296551 44.0569098,30.0693098 42.3052852,29.5118242 C39.325094,28.5634937 37.822768,27.3003613 34.2828277,22.7668867 C32.7104702,20.7531357 31.7385741,19.6391458 30.7718716,18.7420013 C28.5750948,16.7032296 26.4166845,15.6342114 23.6536244,15.2158928 Z" id="路径" fill-rule="nonzero"></path>
                        <path d="M50.1934291,19.6952647 C50.2763523,18.3243898 50.4746237,17.4202204 50.8732928,16.5944722 C51.0309885,16.2674959 51.1789391,16 51.2016189,16 C51.2244759,16 51.1559049,16.2412447 51.0492387,16.5361548 C50.7595392,17.3374795 50.7118761,18.4337142 50.911565,19.7088887 C51.1649414,21.3271558 51.3089938,21.5605917 53.1329491,23.308453 C53.9884044,24.1283861 54.9834824,25.162482 55.3442337,25.6064255 L56,26.4135653 L55.3442337,25.8367046 C54.5421115,25.1312465 52.6974253,23.7553872 52.2898969,23.5586697 C52.0166757,23.4269155 51.9761001,23.4290754 51.8075959,23.5864161 C51.6522036,23.7312959 51.6196013,23.949114 51.5979846,24.978724 C51.5644964,26.583367 51.3311421,27.6133093 50.7682213,28.6430854 C50.4638153,29.2001747 50.4157979,29.0812138 50.6913225,28.4525154 C50.8970357,27.9831514 50.9179437,27.7767975 50.916349,26.2233275 C50.9131597,23.1022652 50.5180343,22.3519475 48.2006152,21.0664719 C47.6135972,20.7408247 46.6463374,20.2712947 46.0511687,20.0229056 C45.4560001,19.7745166 44.9832671,19.5581938 45.0004542,19.5419115 C45.0660131,19.4807695 47.3260239,20.099333 48.2356981,20.4273063 C49.5886924,20.9154447 49.8121243,20.9785804 49.9763759,20.9197645 C50.0865858,20.8803878 50.1399188,20.5794965 50.1934291,19.6952647 Z" id="路径" fill-rule="nonzero"></path>
                        <path d="M25.1130385,25.8397271 C23.7071273,23.6485845 22.8372092,20.2887054 23.0255104,17.777195 L23.0837905,17 L23.4037955,17.0661516 C24.0047993,17.1901426 25.0409915,17.6268819 25.5261999,17.9604107 C26.8577696,18.87597 27.4341458,20.0812456 28.0206178,23.176345 C28.1923987,24.0828993 28.4178707,25.1089422 28.5215817,25.4561516 C28.6884677,26.0153233 29.3192998,27.3210386 29.832348,28.169234 C30.2017611,28.7800109 29.9562506,29.069381 29.1397176,28.9859122 C27.8924322,28.8584577 26.2029218,27.5383692 25.1130385,25.8397271 Z" id="路径" fill-rule="nonzero"></path>
                        <path d="M48.8762246,40.4975535 C41.5723993,37.6788988 39,35.2324792 39,31.1044824 C39,30.4969111 39.0217654,30 39.048462,30 C39.0749886,30 39.3575989,30.2004594 39.6764281,30.445411 C41.1574962,31.5841182 42.8159184,32.070273 47.4073996,32.7123949 C50.1092011,33.0901713 51.629719,33.3952607 53.0322276,33.8411606 C57.4900555,35.2580663 60.2483111,38.1337623 60.9060345,42.0505434 C61.097162,43.1885987 60.9851042,45.3229208 60.6751171,46.4476121 C60.4304263,47.3361525 59.6839408,48.937546 59.4860116,48.9989877 C59.431088,49.0161 59.3771846,48.8143368 59.3632411,48.5400497 C59.2880824,47.0691993 58.5126897,45.6374628 57.210336,44.5647606 C55.729608,43.3453807 53.7402836,42.3745379 48.8762246,40.4975535 Z" id="路径" fill-rule="nonzero"></path>
                        <path d="M43.8061766,42.1390205 C43.719062,41.5846136 43.5682683,40.8764547 43.4709715,40.5654882 L43.2936717,40 L43.622735,40.395634 C44.0780256,40.9431152 44.4379589,41.6436557 44.7427789,42.5767285 C44.9755152,43.2890428 45.0016981,43.5007978 45,44.6580921 C44.9981424,45.7942628 44.9690503,46.0323357 44.7542541,46.6733147 C44.4153317,47.6841291 43.99479,48.4009452 43.2891462,49.1702238 C42.0208946,50.5527784 40.3906086,51.318421 38.0378701,51.635967 C37.6288036,51.6910268 36.4368378,51.7840051 35.3888776,51.8423546 C32.7479663,51.989527 31.0098781,52.2933946 29.44812,52.8808721 C29.2234648,52.9655395 29.0230529,53.0167901 29.0026885,52.994974 C28.9394941,52.927621 30.0028084,52.2485503 30.8812266,51.7954326 C32.119578,51.1561851 33.3524344,50.8074731 36.1145626,50.3147054 C37.4791412,50.071265 38.888166,49.7758814 39.2459982,49.6583166 C42.6250395,48.5484638 44.3619963,45.6843164 43.8061766,42.1390205 Z" id="路径" fill-rule="nonzero"></path>
                        <path d="M46.8986826,47.3522605 C45.97372,45.263333 45.7614016,43.2464315 46.2680484,41.3655794 C46.3223436,41.1644852 46.4093779,41 46.4618902,41 C46.5142405,41 46.7325556,41.1239598 46.9468189,41.2755041 C47.3730764,41.57689 48.2280226,42.0846486 50.5053398,43.3891215 C53.3473267,45.0169458 54.9677535,46.2774879 56.06954,47.7176696 C57.0345352,48.9788928 57.6317819,50.4151583 57.9191411,52.1667721 C58.0818645,53.1589616 57.9865643,55.5463803 57.744262,56.5455511 C56.980078,59.6956294 55.2042211,62.1702287 52.6713114,63.6141565 C52.3001595,63.8256374 51.9670951,63.9993174 51.9309524,64 C51.8949717,64.0008499 52.0301423,63.6396977 52.2314396,63.1973245 C53.0836305,61.3260077 53.1805514,59.5057733 52.536465,57.479677 C52.1419742,56.2392273 51.3377575,54.725487 49.7139271,52.1672829 C47.8259143,49.1927576 47.3631898,48.4011515 46.8986826,47.3522605 Z" id="路径" fill-rule="nonzero"></path>
                        <path d="M19.7864743,58.5137546 C22.4284977,56.2346956 25.715778,54.6154088 28.7100159,54.1185475 C30.0005299,53.9043248 32.1502817,53.9893365 33.3453249,54.30178 C35.2607089,54.8027055 36.9742119,55.9244537 37.865439,57.2609326 C38.736279,58.567268 39.109875,59.7054427 39.4988856,62.238182 C39.6523683,63.2371543 39.8192765,64.2405296 39.8698297,64.4676226 C40.1618777,65.7802238 40.7303934,66.8293225 41.4348224,67.3563274 C42.5537873,68.1928968 44.4804422,68.2450554 46.3757707,67.4896027 C46.6974876,67.3614077 46.976773,67.2728398 46.996497,67.2928226 C47.0651167,67.3625932 46.1107397,68.0152528 45.4374712,68.3588559 C44.5314926,68.8213399 43.810986,69 42.8537912,69 C41.1179122,69 39.6767333,68.0977243 38.4742314,66.2581183 C38.2375432,65.8960565 37.7056579,64.8115644 37.2921166,63.8483242 C36.0224868,60.8893408 35.395462,59.9880812 33.9211335,59.0016406 C32.6382438,58.1432255 30.9835814,57.9894593 29.7389796,58.6129914 C28.1038754,59.4321182 27.6477369,61.5668943 28.8187466,62.9197998 C29.284167,63.4574735 30.1521894,63.9213123 30.8617566,64.0115738 C32.189564,64.1802424 33.3305733,63.1482477 33.3305733,61.7785769 C33.3305733,60.8893408 32.9960938,60.3818108 32.1537624,59.9935003 C31.0036369,59.4631085 29.7671567,60.0830844 29.7731237,61.1870512 C29.7756099,61.6578332 29.9763307,61.9535114 30.4381047,62.1670567 C30.7344621,62.3040577 30.7414236,62.3148958 30.499763,62.2635839 C29.4442796,62.0400472 29.1969836,60.7399776 30.0456134,59.8769902 C31.0644664,58.8409312 33.1712894,59.2981655 33.8946138,60.7123742 C34.1985956,61.3062708 34.2339,62.4893222 33.9688689,63.2036238 C33.3758225,64.8025891 31.6467392,65.6433922 29.8924622,65.1858192 C28.6982478,64.8742225 28.2119431,64.5370545 26.7719244,63.0215768 C24.2697924,60.3882459 23.2983432,59.8780063 19.6911692,59.3025685 L19,59.1923242 L19.7864743,58.5137546 Z" id="路径" fill-rule="nonzero"></path>
                        <path d="M1.248553,1.5467626 C9.72631622,11.7218145 22.7967891,27.5639335 23.4457386,28.4507769 C23.9813448,29.1831336 23.7797147,29.8414896 22.861869,30.3574985 C22.3514876,30.6443548 21.3021367,30.9352022 20.7767886,30.9352022 C20.1824927,30.9352022 19.513027,30.6521706 19.025516,30.1948634 C18.6809455,29.8717551 17.2902192,27.81803 14.079609,22.8919169 C11.6232198,19.1227078 9.5674001,15.9958907 9.51123292,15.9435082 C9.38157754,15.8224465 9.38376369,15.8264376 13.829211,23.6919551 C16.6205854,28.6308728 17.562815,30.3769548 17.562815,30.6104309 C17.562815,31.0853652 17.4318143,31.3351381 16.8392001,31.9886717 C15.8515659,33.0782268 15.409964,34.3026461 15.0912909,36.8366268 C14.7339399,39.6770865 13.7291527,41.6835842 10.944505,45.1177118 C9.31464779,47.127868 9.04793776,47.4963744 8.63660566,48.3065565 C8.11848864,49.3269336 7.97605271,49.8983181 7.91837204,51.1867604 C7.85732807,52.5490369 7.97622087,53.428896 8.39697023,54.7313069 C8.76542021,55.8715816 9.15001404,56.6245587 10.133276,58.1303465 C10.9818377,59.4299304 11.4703576,60.3957632 11.4703576,60.7735821 C11.4703576,61.0740745 11.5283746,61.0744071 12.8432584,60.780899 C15.9897977,60.0783089 18.5447317,58.8424154 19.9817034,57.3281466 C20.8709611,56.39075 21.0798223,55.8730782 21.0865489,54.588627 C21.0909212,53.7483458 21.0611559,53.5724073 20.8314422,53.0891583 C20.457611,52.3024236 19.7768782,51.6483912 18.2768445,50.634167 C16.3113295,49.3054817 15.4716806,48.2358817 15.2397808,46.7646829 C15.049586,45.5577245 15.2703869,44.7061354 16.3577431,42.4525255 C17.4831047,40.1197599 17.7620908,39.1258235 17.9507722,36.7745993 C18.0725238,35.255508 18.2413617,34.6563524 18.6826272,34.1754315 C19.1430635,33.6740565 19.5574226,33.5042709 20.6965737,33.350283 C22.5537903,33.0995124 23.7364963,32.6242455 24.7084912,31.7383999 C25.5518397,30.9701238 25.9046503,30.2296187 25.9587995,29.1149532 L26,28.2701821 L25.5286329,27.7269012 C23.8220924,25.7591499 0.105668596,0 0.000649421394,0 C-0.0217838177,0 0.539787087,0.696088071 1.248553,1.5467626 Z M12.4283948,52.728135 C12.8141658,52.0523182 12.6091724,51.1836008 11.9637544,50.7592197 C11.3539873,50.358286 10.4065445,50.5471955 10.4065445,51.0696897 C10.4065445,51.2291652 10.4958402,51.3452381 10.6967977,51.4475086 C11.0351461,51.6196224 11.0596982,51.8133544 10.7934926,52.2089667 C10.5237557,52.6097341 10.5456171,52.96211 10.854873,53.2014064 C11.3533146,53.5873737 12.0587677,53.3751832 12.4283948,52.728135 Z" id="形状" fill-rule="evenodd"></path>
                        <path d="M27.0752662,33.0841842 C26.1978686,33.3610939 25.3448432,34.3162844 25.0808115,35.3177134 C24.9196845,35.9288963 25.0110801,37.0005523 25.2524321,37.3316966 C25.6422174,37.8662208 26.0191395,38.0071962 27.0398928,37.9997215 C29.0382402,37.9854675 30.7754333,37.1051973 30.9773499,36.0046858 C31.1430467,35.1026869 30.3800628,33.8525085 29.3290136,33.3037303 C28.7867331,33.0207366 27.633287,32.9082693 27.0752662,33.0841842 Z M29.4114389,34.9603209 C29.7196451,34.5106252 29.584752,34.0245993 29.0607506,33.6958886 C28.0625078,33.0699303 26.5531267,33.5879408 26.5531267,34.5563423 C26.5531267,35.0383702 27.3403134,35.5643768 28.0618308,35.5643768 C28.5419961,35.5643768 29.199198,35.2702581 29.4114389,34.9603209 Z" id="形状" fill-rule="evenodd"></path>
                    </g>
                </g>
            </g>
        </g>
    </g>
</svg>